<svg version="1.1" id="Layer_1" xmlns="http://www.w3.org/2000/svg" xmlns:xlink="http://www.w3.org/1999/xlink" x="0px" y="0px"
	 width="100%" viewBox="0 0 225 225" enable-background="new 0 0 225 225" xml:space="preserve">
<path fill="#FDFDFD" opacity="1.000000" stroke="none" 
	d="
M124.000000,226.000000 
	C82.666672,226.000000 41.833340,226.000000 1.000005,226.000000 
	C1.000004,151.000000 1.000004,76.000015 1.000002,1.000015 
	C75.999992,1.000010 150.999985,1.000010 225.999969,1.000005 
	C225.999985,75.999985 225.999985,150.999969 226.000000,225.999969 
	C192.166672,226.000000 158.333328,226.000000 124.000000,226.000000 
M187.049545,174.567459 
	C189.785324,171.652969 192.698532,168.883224 195.218948,165.793076 
	C200.070572,159.844727 201.565430,153.011841 199.108734,145.689606 
	C193.780746,129.809448 188.386734,113.948097 182.730621,98.182770 
	C179.969910,90.487770 174.388351,85.467674 166.220184,83.794083 
	C157.210114,81.948006 148.166702,80.264679 139.092636,78.501678 
	C142.423843,74.647675 145.910217,71.085251 148.850082,67.117882 
	C155.616760,57.986217 154.437195,54.977222 143.021317,53.018684 
	C124.169777,49.784451 105.237930,49.725540 86.379379,52.996677 
	C74.455269,55.064987 73.394402,57.893005 80.686035,67.553940 
	C83.599632,71.414268 86.988281,74.916046 90.096489,78.506866 
	C80.782806,80.306335 71.792534,81.947075 62.846348,83.800583 
	C54.915443,85.443748 49.303749,90.239166 46.590683,97.761810 
	C40.798260,113.822762 35.330074,130.001617 29.829897,146.166489 
	C27.703255,152.416626 28.645334,158.684006 32.453117,163.760330 
	C36.870235,169.649002 42.333462,174.752975 48.183422,181.111465 
	C46.502224,166.321136 45.121521,152.930145 43.417324,139.580444 
	C42.084923,129.143158 46.226772,124.159096 56.793182,124.157806 
	C94.943825,124.153160 133.094467,124.155640 171.245117,124.156166 
	C183.419907,124.156334 187.117279,128.753601 185.508194,141.005188 
	C183.815475,153.893646 182.562958,166.839935 180.985413,180.947479 
	C183.394348,178.402603 184.969971,176.738098 187.049545,174.567459 
M126.500237,131.604614 
	C103.029427,131.604691 79.558418,131.654510 56.087990,131.559158 
	C51.845695,131.541931 50.071426,132.757904 50.629974,137.412796 
	C52.650223,154.249344 54.303368,171.129593 56.191444,187.982529 
	C57.087070,195.976822 58.235760,196.905594 66.195648,196.906128 
	C98.488831,196.908325 130.782013,196.908295 163.075195,196.906082 
	C170.896454,196.905548 172.114243,195.699158 172.948456,187.835892 
	C174.719955,171.137817 176.558563,154.446762 178.418930,137.758301 
	C179.006226,132.490082 178.364807,131.629868 172.943726,131.617126 
	C157.795990,131.581512 142.648087,131.604645 126.500237,131.604614 
M123.762581,5.540167 
	C116.199692,1.313244 108.929390,2.238108 102.429504,7.514555 
	C88.611946,18.731297 82.669586,34.646481 76.712891,50.489117 
	C102.121826,44.732822 126.950150,44.584591 153.258514,50.802181 
	C148.968796,41.684975 145.284882,33.086941 140.936279,24.839365 
	C136.966248,17.309767 131.858429,10.527049 123.762581,5.540167 
M90.499870,211.701050 
	C115.163345,211.700714 139.826874,211.727066 164.490250,211.678848 
	C169.793259,211.668472 172.393051,209.657394 172.112076,205.899200 
	C171.764114,201.245041 168.407455,200.531281 164.607437,200.531860 
	C131.278427,200.536957 97.949387,200.518341 64.620399,200.551559 
	C59.440197,200.556732 56.637276,202.653702 56.957039,206.277527 
	C57.360550,210.850403 60.704887,211.690155 64.503105,211.696045 
	C72.835335,211.708954 81.167610,211.700668 90.499870,211.701050 
z"/>
<path fill="#020202" opacity="1.000000" stroke="none" 
	d="
M186.797562,174.820526 
	C184.969971,176.738098 183.394348,178.402603 180.985413,180.947479 
	C182.562958,166.839935 183.815475,153.893646 185.508194,141.005188 
	C187.117279,128.753601 183.419907,124.156334 171.245117,124.156166 
	C133.094467,124.155640 94.943825,124.153160 56.793182,124.157806 
	C46.226772,124.159096 42.084923,129.143158 43.417324,139.580444 
	C45.121521,152.930145 46.502224,166.321136 48.183422,181.111465 
	C42.333462,174.752975 36.870235,169.649002 32.453117,163.760330 
	C28.645334,158.684006 27.703255,152.416626 29.829897,146.166489 
	C35.330074,130.001617 40.798260,113.822762 46.590683,97.761810 
	C49.303749,90.239166 54.915443,85.443748 62.846348,83.800583 
	C71.792534,81.947075 80.782806,80.306335 90.096489,78.506866 
	C86.988281,74.916046 83.599632,71.414268 80.686035,67.553940 
	C73.394402,57.893005 74.455269,55.064987 86.379379,52.996677 
	C105.237930,49.725540 124.169777,49.784451 143.021317,53.018684 
	C154.437195,54.977222 155.616760,57.986217 148.850082,67.117882 
	C145.910217,71.085251 142.423843,74.647675 139.092636,78.501678 
	C148.166702,80.264679 157.210114,81.948006 166.220184,83.794083 
	C174.388351,85.467674 179.969910,90.487770 182.730621,98.182770 
	C188.386734,113.948097 193.780746,129.809448 199.108734,145.689606 
	C201.565430,153.011841 200.070572,159.844727 195.218948,165.793076 
	C192.698532,168.883224 189.785324,171.652969 186.797562,174.820526 
M97.097855,103.765282 
	C97.598633,97.708977 98.720238,91.606567 98.275772,85.620445 
	C98.112122,83.416389 94.251740,81.486816 91.423386,78.813858 
	C91.423386,87.873474 91.423386,95.711319 91.423386,103.793648 
	C93.258934,103.793648 94.743011,103.793648 97.097855,103.765282 
M137.947159,91.508873 
	C137.947159,87.651901 137.947159,83.794937 137.947159,79.937965 
	C137.523254,79.778625 137.099335,79.619278 136.675430,79.459938 
	C134.663666,81.682686 131.295364,83.696587 130.914490,86.170433 
	C130.045532,91.814301 130.640121,97.683502 130.640121,103.537857 
	C133.277832,103.537857 135.375366,103.537857 137.946854,103.537857 
	C137.946854,99.719482 137.946854,96.104187 137.947159,91.508873 
z"/>
<path fill="#020202" opacity="1.000000" stroke="none" 
	d="
M127.000244,131.604599 
	C142.648087,131.604645 157.795990,131.581512 172.943726,131.617126 
	C178.364807,131.629868 179.006226,132.490082 178.418930,137.758301 
	C176.558563,154.446762 174.719955,171.137817 172.948456,187.835892 
	C172.114243,195.699158 170.896454,196.905548 163.075195,196.906082 
	C130.782013,196.908295 98.488831,196.908325 66.195648,196.906128 
	C58.235760,196.905594 57.087070,195.976822 56.191444,187.982529 
	C54.303368,171.129593 52.650223,154.249344 50.629974,137.412796 
	C50.071426,132.757904 51.845695,131.541931 56.087990,131.559158 
	C79.558418,131.654510 103.029427,131.604691 127.000244,131.604599 
M127.717873,164.102722 
	C126.678436,165.224503 125.347267,166.197495 124.678589,167.508392 
	C123.956284,168.924423 123.853142,170.656250 123.479919,172.250336 
	C124.802887,172.362106 126.318741,172.944092 127.411942,172.495697 
	C130.450699,171.249298 133.379883,169.688614 136.227890,168.037415 
	C139.135223,166.351822 139.180435,163.961273 136.523605,162.208984 
	C133.511887,160.222626 130.174469,158.677994 126.841110,157.266037 
	C125.948326,156.887863 123.967705,157.337723 123.538269,158.045563 
	C122.999344,158.933868 123.141975,160.728760 123.729362,161.672485 
	C124.351440,162.671921 125.840820,163.131516 127.717873,164.102722 
M105.964706,160.201324 
	C106.121643,157.241074 104.837105,156.008835 102.029999,157.295624 
	C98.860107,158.748734 95.697838,160.283051 92.741653,162.119171 
	C89.909019,163.878601 89.915970,166.220123 92.781326,167.965652 
	C95.755478,169.777466 98.894745,171.362228 102.097801,172.727142 
	C103.044113,173.130371 104.451363,172.451874 105.647385,172.269089 
	C105.384796,170.758438 105.568230,168.906525 104.742218,167.826950 
	C103.794327,166.588089 101.951698,166.033798 100.501785,165.184509 
	C102.579445,163.568573 104.231758,162.283463 105.964706,160.201324 
M118.068718,164.621353 
	C118.985703,162.334122 120.213249,160.110672 120.701073,157.735306 
	C120.985466,156.350494 120.085838,154.722534 119.718925,153.203964 
	C118.177322,154.045456 115.837296,154.513519 115.237686,155.795563 
	C113.085335,160.397614 111.388466,165.232224 109.833603,170.079697 
	C109.469719,171.214142 110.340469,172.744629 110.643181,174.092911 
	C112.126480,173.474838 114.188583,173.261398 114.965752,172.149673 
	C116.343475,170.178909 116.940865,167.662628 118.068718,164.621353 
z"/>
<path fill="#030303" opacity="1.000000" stroke="none" 
	d="
M124.090652,5.722902 
	C131.858429,10.527049 136.966248,17.309767 140.936279,24.839365 
	C145.284882,33.086941 148.968796,41.684975 153.258514,50.802181 
	C126.950150,44.584591 102.121826,44.732822 76.712891,50.489117 
	C82.669586,34.646481 88.611946,18.731297 102.429504,7.514555 
	C108.929390,2.238108 116.199692,1.313244 124.090652,5.722902 
z"/>
<path fill="#090909" opacity="1.000000" stroke="none" 
	d="
M89.999863,211.701050 
	C81.167610,211.700668 72.835335,211.708954 64.503105,211.696045 
	C60.704887,211.690155 57.360550,210.850403 56.957039,206.277527 
	C56.637276,202.653702 59.440197,200.556732 64.620399,200.551559 
	C97.949387,200.518341 131.278427,200.536957 164.607437,200.531860 
	C168.407455,200.531281 171.764114,201.245041 172.112076,205.899200 
	C172.393051,209.657394 169.793259,211.668472 164.490250,211.678848 
	C139.826874,211.727066 115.163345,211.700714 89.999863,211.701050 
z"/>
<path fill="#E6E6E6" opacity="1.000000" stroke="none" 
	d="
M96.662468,103.779465 
	C94.743011,103.793648 93.258934,103.793648 91.423386,103.793648 
	C91.423386,95.711319 91.423386,87.873474 91.423386,78.813858 
	C94.251740,81.486816 98.112122,83.416389 98.275772,85.620445 
	C98.720238,91.606567 97.598633,97.708977 96.662468,103.779465 
z"/>
<path fill="#F3F3F3" opacity="1.000000" stroke="none" 
	d="
M137.947006,91.998886 
	C137.946854,96.104187 137.946854,99.719482 137.946854,103.537857 
	C135.375366,103.537857 133.277832,103.537857 130.640121,103.537857 
	C130.640121,97.683502 130.045532,91.814301 130.914490,86.170433 
	C131.295364,83.696587 134.663666,81.682686 136.675430,79.459938 
	C137.099335,79.619278 137.523254,79.778625 137.947159,79.937965 
	C137.947159,83.794937 137.947159,87.651901 137.947006,91.998886 
z"/>
<path fill="#F4F4F4" opacity="1.000000" stroke="none" 
	d="
M127.334633,163.964813 
	C125.840820,163.131516 124.351440,162.671921 123.729362,161.672485 
	C123.141975,160.728760 122.999344,158.933868 123.538269,158.045563 
	C123.967705,157.337723 125.948326,156.887863 126.841110,157.266037 
	C130.174469,158.677994 133.511887,160.222626 136.523605,162.208984 
	C139.180435,163.961273 139.135223,166.351822 136.227890,168.037415 
	C133.379883,169.688614 130.450699,171.249298 127.411942,172.495697 
	C126.318741,172.944092 124.802887,172.362106 123.479919,172.250336 
	C123.853142,170.656250 123.956284,168.924423 124.678589,167.508392 
	C125.347267,166.197495 126.678436,165.224503 127.334633,163.964813 
z"/>
<path fill="#F3F3F3" opacity="1.000000" stroke="none" 
	d="
M105.924393,160.599838 
	C104.231758,162.283463 102.579445,163.568573 100.501785,165.184509 
	C101.951698,166.033798 103.794327,166.588089 104.742218,167.826950 
	C105.568230,168.906525 105.384796,170.758438 105.647385,172.269089 
	C104.451363,172.451874 103.044113,173.130371 102.097801,172.727142 
	C98.894745,171.362228 95.755478,169.777466 92.781326,167.965652 
	C89.915970,166.220123 89.909019,163.878601 92.741653,162.119171 
	C95.697838,160.283051 98.860107,158.748734 102.029999,157.295624 
	C104.837105,156.008835 106.121643,157.241074 105.924393,160.599838 
z"/>
<path fill="#F0F0F0" opacity="1.000000" stroke="none" 
	d="
M117.966736,164.997986 
	C116.940865,167.662628 116.343475,170.178909 114.965752,172.149673 
	C114.188583,173.261398 112.126480,173.474838 110.643181,174.092896 
	C110.340469,172.744629 109.469719,171.214142 109.833603,170.079697 
	C111.388466,165.232224 113.085335,160.397614 115.237686,155.795563 
	C115.837296,154.513519 118.177322,154.045456 119.718925,153.203964 
	C120.085838,154.722534 120.985466,156.350494 120.701073,157.735306 
	C120.213249,160.110672 118.985703,162.334122 117.966736,164.997986 
z"/>
</svg>